<?xml version="1.0" encoding="utf-8"?>
<!-- Generator: Adobe Illustrator 19.0.0, SVG Export Plug-In . SVG Version: 6.00 Build 0)  -->
<svg version="1.1" id="Layer_1" xmlns="http://www.w3.org/2000/svg" xmlns:xlink="http://www.w3.org/1999/xlink" x="0px" y="0px"
	 viewBox="0 0 273.1 321.5" enable-background="new 0 0 273.1 321.5" xml:space="preserve">
<g>
	<path fill="#3BA935" d="M190.5,40.3c-0.2-8.2-9.5-14.8-17.2-11.6c-4.5,1.6-8,5.9-8.7,10.6c-1.1,7.2,5.2,14.5,12.4,14.6
		C184.2,54.6,191.2,47.6,190.5,40.3z M187.5,70.8c-4.5-0.9-8.9-2.4-13.1-4.5c-8.4-4.1-15.8-10.4-21.4-18
		C142.1,34.3,136.6,17,132.3,0c-1.2,14.7-0.8,29.4,0.3,44.1c0.9,9.3,2.2,18.8,5.4,27.6c0.9,2.5,2,5,3.2,7.3
		c2.7,4.8,6.8,9.3,12.4,10.5c9.9,1.7,20.2-0.1,29.5-3.8c11.9-4.8,23.1-11,34.9-16C208,71.9,197.6,73,187.5,70.8z"/>
	<path fill="#1171B8" d="M84.5,75.7c-2-6.6-9.5-10.8-16.1-8.7c-4.1,1.3-7.6,4.6-8.8,8.8C57.2,83.2,63,92.1,71,92.3
		C79.5,93.5,87.5,83.9,84.5,75.7z M116.3,64.8c0-0.5,0-0.9,0-1.4c-1.1-11.9-2.5-23.8-6.1-35.2c-0.7,5.7-0.5,11.4-1.6,17.1
		c-0.6,4.3-1.6,8.5-2.7,12.6c-2.7,9.6-6.8,18.9-12.2,27.4c-10.9,16.9-28.8,28.5-47.9,33.9c-1.9,0.5-3.8,1.3-5.4,2.4
		c6.6,0.8,13.2,0.3,19.8-0.3c8.9-0.3,17.7-1.8,26.3-4.1c9.3-2.3,17.9-8.1,22.9-16.4C115.8,89.9,116.8,77,116.3,64.8z"/>
	<path fill="#EB5E0B" d="M222.3,159.7c-5.8,1.8-10.6,7.5-10.1,13.7c-0.6,8.9,9.6,15.9,17.8,13c5.4-1.8,10.3-6.9,9.7-13
		C240.6,164.5,230.6,157,222.3,159.7z M261,90.2c-20.2,0.6-40.2,5.2-59.1,12.1c-13.4,5.2-26.6,12.9-34.8,25.1
		c-4.5,7-6.6,15-7.5,23.1c-0.4,3.3-0.6,6.6-0.7,9.9c0.5,18.8,4.6,37.3,6.8,56c4.9,35.6,12,71.1,23.9,105.2
		c-9.7-45.8-8.2-93.6,2.9-139c3.3-13.3,8-26.3,14.3-38.4c0.6-1.1,1.2-2.2,1.8-3.3c7.2-12.6,17-24,29.1-32
		c10.9-7.7,23.6-12.2,35.6-17.9C269.1,90.6,265,90.1,261,90.2z"/>
	<path fill="#E20C18" d="M92.9,200.4c-1.2-7.2-9.3-13-16.5-10.3c-4,1.5-7.8,4.3-8.9,8.6c-0.4,2.7-0.5,5.6,0.2,8.3
		c1.5,3.8,4.9,6.7,8.7,8C84.9,217.6,94.8,209.1,92.9,200.4z M141.2,236.4c-1.5-11.7-1.6-23.6-3.9-35.2c-1.5-11.3-3.3-22.5-5.5-33.7
		c-0.8-4.4-1.7-8.8-2.7-13.2c-0.9-4.9-3.3-9.7-7.2-12.9c-6-5.4-14.5-6.3-22.1-5.6c-16.5,1.8-32.3,7.3-47.8,12.7
		C34.3,154.7,17.2,162.3,0,170c21-2.3,42.4-4.9,63.3-0.8c6.1,1.1,11.7,3.8,17.4,6.2c7.7,3.1,13.1,9.6,18.6,15.5
		c2.7,3.3,5.1,6.8,7.4,10.4c5,8,9.2,16.6,12.8,25.3c8.4,19.9,14.2,40.7,19.4,61.6c1.6,9.1,3.6,18.1,5.2,27.2
		C145.1,289.1,143.1,262.7,141.2,236.4z"/>
</g>
<linearGradient id="SVGID_1_" gradientUnits="userSpaceOnUse" x1="125.6185" y1="315.5" x2="125.6185" y2="167.42">
	<stop  offset="0.5808" style="stop-color:#000000"/>
	<stop  offset="0.9655" style="stop-color:#FFFFFF"/>
</linearGradient>
<path opacity="0.3" fill="url(#SVGID_1_)" d="M141.2,236.4c1.9,26.3,3.8,52.7,3,79.1c-1.6-9.1-3.6-18.1-5.2-27.2
	c-5.2-20.9-11-41.7-19.4-61.6c-3.5-8.8-7.7-17.3-12.8-25.3c5.8-13.1,14.4-24.6,25-33.9c2.1,11.2,3.9,22.5,5.5,33.7
	C139.6,212.8,139.7,224.7,141.2,236.4z"/>
<linearGradient id="SVGID_2_" gradientUnits="userSpaceOnUse" x1="182.71" y1="321.5" x2="182.71" y2="143.5">
	<stop  offset="0.6096" style="stop-color:#000000"/>
	<stop  offset="0.9655" style="stop-color:#FFFFFF"/>
</linearGradient>
<path opacity="0.3" fill="url(#SVGID_2_)" d="M195.8,143.5c3.7,0,7.3,0.2,10.9,0.6c-6.3,12.2-11,25.1-14.3,38.4
	c-11.2,45.3-12.7,93.2-2.9,139c-11.9-34-19-69.5-23.9-105.2c-2.2-18.7-6.3-37.1-6.8-56c0.1-3.3,0.3-6.6,0.7-9.9
	C170.7,146,182.9,143.5,195.8,143.5z"/>
<linearGradient id="SVGID_3_" gradientUnits="userSpaceOnUse" x1="225.9679" y1="187.0075" x2="225.9679" y2="159.0989">
	<stop  offset="0.3407" style="stop-color:#000000"/>
	<stop  offset="0.9655" style="stop-color:#FFFFFF"/>
</linearGradient>
<path opacity="0.5" fill="url(#SVGID_3_)" d="M239.7,173.4c0.6,6-4.3,11.2-9.7,13c-8.2,2.9-18.4-4.1-17.8-13
	c-0.6-6.2,4.3-12,10.1-13.7C230.6,157,240.6,164.5,239.7,173.4z"/>
<linearGradient id="SVGID_4_" gradientUnits="userSpaceOnUse" x1="111.11" y1="64.75" x2="111.11" y2="28.18">
	<stop  offset="3.448276e-002" style="stop-color:#FFFFFF"/>
	<stop  offset="0.5279" style="stop-color:#000000"/>
</linearGradient>
<path opacity="0.3" fill="url(#SVGID_4_)" d="M116.3,63.3c0,0.5,0,0.9,0,1.4c-3.7-2-7.2-4.3-10.5-6.9c1.2-4.1,2.1-8.3,2.7-12.6
	c1.1-5.6,0.9-11.4,1.6-17.1C113.8,39.6,115.2,51.5,116.3,63.3z"/>
<linearGradient id="SVGID_5_" gradientUnits="userSpaceOnUse" x1="152.9767" y1="72.33" x2="152.9767" y2="9.285941e-010">
	<stop  offset="3.448276e-002" style="stop-color:#FFFFFF"/>
	<stop  offset="0.5279" style="stop-color:#000000"/>
</linearGradient>
<path opacity="0.3" fill="url(#SVGID_5_)" d="M174.4,66.3c-8.3,3.8-17.6,6-27.4,6c-3,0-6-0.2-9-0.6c-3.2-8.8-4.6-18.3-5.4-27.6
	c-1.1-14.7-1.5-29.4-0.3-44.1c4.3,17,9.8,34.3,20.7,48.4C158.6,55.9,166,62.2,174.4,66.3z"/>
<linearGradient id="SVGID_6_" gradientUnits="userSpaceOnUse" x1="177.4662" y1="53.9873" x2="177.4662" y2="27.9238">
	<stop  offset="3.448276e-002" style="stop-color:#FFFFFF"/>
	<stop  offset="0.5279" style="stop-color:#000000"/>
</linearGradient>
<path opacity="0.3" fill="url(#SVGID_6_)" d="M176.9,54c-7.2-0.1-13.5-7.4-12.4-14.6c0.7-4.7,4.2-9,8.7-10.6
	c7.7-3.2,17,3.4,17.2,11.6C191.2,47.6,184.2,54.6,176.9,54z"/>
</svg>
